# xmcd
#
# Track frame offsets:
#	150
#	16905
#	33070
#	46946
#	61894
#	76945
#	95054
#	113011
#	127798
#	143479
#	157800
#	176265
#	190971
#	211667
#	228351
#	246608
#	265286
#
# Disc length: 3724
#
# Revision: 1
# Processed by: cddbd v1.5.1PL0 Copyright (c) Steve Scherf et al.
# Submitted via: VisiTrax 2.9.5.180 - For more info visit www.synapsa.com
# Normalized: r0:DSETVAR1
#
DISCID=ce0e8a11
DTITLE=Various Artist - CDX 208 March 1999
DYEAR=1999
DGENRE=
TTITLE0=Hal Bynum - A lovers paryer
TTITLE1=Joe Diffie - A night to remember
TTITLE2=Janie fricke - Bouncin back
TTITLE3=Confederate Railroad - Cowboy cadillac
TTITLE4=Linda DAvis - From the inside out
TTITLE5=Tractors - I wouldn't tell you no lie
TTITLE6=Reba McEntire - One honest heart
TTITLE7=Great Divide - San Isabella
TTITLE8=Clay Walker - She's always right
TTITLE9=Shane Minor - Slave to the heart
TTITLE10=Michael Peterson - Somethin' 'bout a sunday
TTITLE11=Kenny Rogers - The greatest
TTITLE12=Steve Wariner - Two teardrops
TTITLE13=Sons of the Desert - What about you
TTITLE14=Martina McBride - Whatever you say
TTITLE15=Scooter lee - Test of time
TTITLE16=Various Artist - Which way Lisa Bowman
EXTD=
EXTT0=
EXTT1=
EXTT2=
EXTT3=
EXTT4=
EXTT5=
EXTT6=
EXTT7=
EXTT8=
EXTT9=
EXTT10=
EXTT11=
EXTT12=
EXTT13=
EXTT14=
EXTT15=
EXTT16=
PLAYORDER=
